<?xml version="1.0" encoding="utf-8"?>
<!-- Generator: Adobe Illustrator 20.1.0, SVG Export Plug-In . SVG Version: 6.00 Build 0)  -->
<svg version="1.1" xmlns="http://www.w3.org/2000/svg" xmlns:xlink="http://www.w3.org/1999/xlink" x="0px" y="0px"
	 viewBox="0 0 841.9 595.3" style="enable-background:new 0 0 841.9 595.3;" xml:space="preserve">
<style type="text/css">
	.st0{fill:url(#SVGID_1_);}
	.st1{fill:#219CD7;}
	.st2{fill:url(#SVGID_2_);}
	.st3{fill:url(#SVGID_3_);}
	.st4{fill:url(#SVGID_4_);}
	.st5{fill:url(#SVGID_5_);}
	.st6{fill:url(#SVGID_6_);}
	.st7{fill:url(#SVGID_7_);}
	.st8{fill:url(#SVGID_8_);}
	.st9{fill:url(#SVGID_9_);}
	.st10{fill:url(#SVGID_10_);}
	.st11{fill:url(#SVGID_11_);}
	.st12{fill:#FFFFFF;}
	.st13{fill:url(#SVGID_12_);}
	.st14{fill:url(#SVGID_13_);}
	.st15{fill:url(#SVGID_14_);}
	.st16{fill:url(#SVGID_15_);}
	.st17{fill:url(#SVGID_16_);}
	.st18{fill:url(#SVGID_17_);}
	.st19{fill:url(#SVGID_18_);}
	.st20{fill:url(#SVGID_19_);}
	.st21{fill:url(#SVGID_20_);}
	.st22{fill:url(#SVGID_21_);}
	.st23{fill:url(#SVGID_22_);}
	.st24{fill:url(#SVGID_23_);}
	.st25{fill:url(#SVGID_24_);}
	.st26{fill:url(#SVGID_25_);}
	.st27{fill:url(#SVGID_26_);}
	.st28{fill:url(#SVGID_27_);}
	.st29{fill:url(#SVGID_28_);}
	.st30{fill:url(#SVGID_29_);}
	.st31{fill:url(#SVGID_30_);}
</style>
<g id="Layer_2">
	<linearGradient id="SVGID_1_" gradientUnits="userSpaceOnUse" x1="572.526" y1="73.4187" x2="165.5259" y2="680.4184">
		<stop  offset="0" style="stop-color:#FFFFFF"/>
		<stop  offset="1" style="stop-color:#44C8F5"/>
	</linearGradient>
	<rect x="1" y="0.6" class="st0" width="842" height="594.7"/>
	<path class="st1" d="M431.1,482.4c0.5-33.5-7.1-67.7-18.1-99.2c-2.6-7.4-6.8-12.6-10.8-19.3c-2.6-4.3-5.2-8.6-8.5-12.4
		c-7.1-8.2-17.4-17-26.4-23c-9.6-6.4-21.1-10.8-32.7-9.4c-6.7,0.8-21.9,5.3-24,14.1c-5.4-1.2-11.6,1-14.2,6.1
		c-8.4-4-16.4-3-24.9,1.2c-7,3.5-10.4,9.2-10.6,16.9c-0.2,5.5,1.1,5.5-3.3,8.3c-2.6,1.6-5.3,2.1-7.6,4.5c-4.1,4.3-5.1,10.5-4.6,16.2
		c0.1,1.7,3.1,16,5.5,15.5c-10,2.1-17.5,12.6-12,21c-24.5-3.9-31,6.1-36.5,15.1c-7.7-5.4-29.3-3.5-34.6,6.5
		c-11.1-16.2-42.1-15.5-52.6-3.5c-14.5-10.5-38.1,9-31.1,24.1c-15.7,8.4-18.5,20.5-16.3,32.9c-4.3,1.2-4.1,1.1-5.8,4.8
		c-9.4-13.4-17.7-22.5-35.3-23.6c-7.9-0.5-17.6,0.7-25.8,4.2v111.8h411.4c5.1-7.4,9.2-15.1,11.8-22.8
		C433.2,545.9,430.7,510.1,431.1,482.4z"/>
	<linearGradient id="SVGID_2_" gradientUnits="userSpaceOnUse" x1="1" y1="465.7068" x2="401.7226" y2="465.7068">
		<stop  offset="0" style="stop-color:#219CD7"/>
		<stop  offset="1" style="stop-color:#44C8F5"/>
	</linearGradient>
	<path class="st2" d="M374.7,364.9c-13.3-16-39.2-41-60.8-21.2c-3.5-1.5-7.4-1.9-10.9-0.3c-1.6,0.7-2.7,1.3-4,2.9
		c-1.4-0.9-4.7-1.3-6.1-1.4c-4.6-0.4-9.4,2-11.2,6.4c-0.8,1.9-0.3,4.8-0.1,7c-2.9,0.6-4,1.6-6.7,2.3c-10.5,2.8-17.4,12.7-18.9,23.2
		c-2,13.9,8.5,19.7,9.9,31.1c-8.9-0.1-20.5,6.1-21.9,15.2l-1.2-2.5c-2.6-4.2-12.4-2-16.1-0.5c-4.9,2-9.8,6.7-10.2,12.2
		c-2.4-0.1-4.9-1.1-7.1,0.7c-1.5,1.2-2.5,4.8-0.4,5.8c-7.4-4.1-15.2-8-23.8-5.2c-4.9,1.6-16.9,6-16.1,12.9
		c-5.1-8.6-17.4-13.1-27.1-13.1c-5,0-9.9,0.8-14.4,2.9c-1.9,0.9-8.3,3.1-7.8,5.4c-4-5.1-15.9-5.6-21-2.6
		c-4.2,2.5-11.8,13.4-6.4,17.9c-12.6,2.9-18.9,29.4-12.1,39.5c-6-1.8-17.2,1.8-17.5,9.4c-5-12.2-14.6-19.3-26.8-24.6
		c-15.4-6.7-27-5.3-35.1,1.2v104.2c0.5,0.5,1.1,1.1,1.6,1.6h168.5c16.1-1.7,31.8-4.6,46.2-10c64.8-24.5,151.6-55.5,179-126
		C409.5,425.1,397.2,391.9,374.7,364.9z"/>
	<linearGradient id="SVGID_3_" gradientUnits="userSpaceOnUse" x1="419.8542" y1="235.6664" x2="843" y2="235.6664">
		<stop  offset="0" style="stop-color:#FFFFFF"/>
		<stop  offset="1" style="stop-color:#C7EAFB"/>
	</linearGradient>
	<path class="st3" d="M843,102.8c-2-0.8-4.2-1.2-6.5-1.1c-0.8-5.5-6.3-9.2-11.3-10.7c-2.6-0.8-5.6-1.2-8.3-0.6
		c-2.5,0.5-4.4,2.4-6.7,2.2c-2.5-0.2-4-2.4-7.1-1.9c-2.6,0.4-5,2-6.9,3.8c-2,1.9-3.6,4.3-4.3,7c-0.1,0.5-0.7,6.9,0.2,6.7
		c-2.5,0.7-5.6,0.8-7.7,2.7c-0.9,0.8-4.2,6.3-2.4,7.2c-3.2-1.7-4.5-1.6-7,1c-5.1-11.2-26.8-5.7-21.6,6.7c-3.3,1.2-4.3,3-4.5,6.5
		c-2.2,0.2-4.1-1-6.3-0.3c4.8-1.4,7.4-7.6,1.8-10.1c2-4.4,3.5-9.3,1.4-14.1c-0.7-1.7-2.4-3-2.7-4.9c-0.4-2.2,1.2-4.5,1.2-6.8
		c0-11.3-14.1-14.4-22.9-12.2c0.8-6.3-10.4-10-15-10c-6.9,0-15.8,0.8-18.8,7.9c-5.8-4.9-18.7,1.9-20.7,8.6c-0.4,1.2,0,4.5-0.7,5.4
		c-1.1,1.4-5.1,2-6.8,2.5c-5.1,1.6-10.3,2.8-15,5.5c-3.1,1.8-2.6,4.6-5.2,6.8c-1.5,1.2-2.8,1.1-4.6,1.5c-3.5,0.7-6.6,1.4-9.6,3.5
		c-4,2.8-8.5,7.1-10.3,11.2c-2.3,5.4-1.5,19.4-5.5,22.5c-1.6,1.2-7.9,0.3-10.1,0.7c-4,0.8-7.7,2.1-10.9,4.6
		c-8.8,6.7-9.5,17.8-16.4,25.1c-8.2-7.5-16.9-4.4-26.2-3.8c-5.6,0.4-4.4-1.8-9.7-5.3c-3.2-2.2-6.3-2.9-10.2-2.9
		c-8.2,0.1-19.1,0.4-23,8.7c-3.3,6.9-1.2,15.5,5.4,19.2c-4.8,6.7-5.4,15.5,1.8,20.6c-10.6,3-4.3,13.7-1.2,19.4
		c-2.9,0.4-5.1,2.6-6.5,4.8c-6.3-11.6-23.1-8.5-29.4,1.3c-1.3,2-0.9,4-2.8,5.5c-1.5,1.1-5.5,0.4-7.5,1.3c-4.7,2.4-6.6,6.3-6.8,11.5
		c-21.9-1.4-36.2,25.1-35.5,44.2c0.9,26.5,24.6,41.4,46.5,50.4c20.9,8.6,41,17.5,63.3,22.5c28.1,6.2,56.4,10.4,85,13
		c41.9,3.7,85.4,8,127.5,6.8c24-0.7,48.9-8.3,70.6-18.6c17.1-8.1,25.5-24.2,30.3-42V102.8z"/>
	<linearGradient id="SVGID_4_" gradientUnits="userSpaceOnUse" x1="868.2656" y1="57.127" x2="537.6201" y2="413.1432">
		<stop  offset="0" style="stop-color:#FFFFFF"/>
		<stop  offset="1" style="stop-color:#C7EAFB"/>
	</linearGradient>
	<path class="st4" d="M843,119.1c-2.8-0.8-3-0.8-5.1-5.3c-2.5-5.4-2.9-9.9-8.7-13.2c-6.2-3.5-11.6-0.7-17.7-1.9
		c-5.4-1.1-10.5-2.7-14.7,2.5c-2.8,3.5-0.4,7.7-0.4,11.3c-6.2-2.4-16.2,1-13.1,9.1c-2.6-1.4-7.4-2.7-8.3,1.5
		c-2.9-4.6-9.8-8.3-15.3-6c-6.6,2.8-3,7.5-3.8,12.8c-4.1,0.1-5.5,3.6-6.5,6.8c-2.6-3.1-7.4-3.4-11.5-3.3c6.3-3,4.8-8.6,0.8-12.5
		c4.1-0.9,6-6.6,2.5-9.3c2.9-3.7-0.1-10.3-5.1-9.5c3.7-4.1,2.4-10-2-12.8c-3.3-2.2-13.7-4.3-16.4-0.7c6.4-10.6-28.6-16.3-29.2-2.7
		c-3.2-3.3-11-2-14.3,0.7c-4.1,3.3-5.7,8.7-5.9,13.7c-8.7,0.5-23.2,3-25.4,13.5c-5.3-0.2-10.9,1.4-15.6,3.7
		c-14,6.8-11.9,29.5-11.8,44.1c0,1.7,0,3.4-0.1,4.9c-15.8-4.8-30.3,6.5-36.8,20.4c-6-5.9-29.8-7.7-37.1-3.4
		c-4.3-13.4-28.5-19.5-33.5-4c-0.8,2.6-1.2,6.7-0.7,9.5c0.7,3.6,4.8,7.2,4.7,10.2c-0.1,2.9-4,6.5-4,10.7c0,3.9,0.3,7.8,3.4,10.2
		c-7.4,3.4,0.8,16.3,5.3,19.1c-7.1-1.6-14.3-0.9-14.9,8.1c-3.8-6-6.6-11.2-14.8-10c-3.2,0.5-5.8,1.3-8.2,3.4
		c-2.8,2.4-2.7,6.7-4.8,8.7c-2.1,1.9-5.9,1.2-8.1,3.4c-2.6,2.6-1.4,5.6-2.7,8.3c-2.8,5.7-11.9,8.9-12.9,16.3
		c-0.8,5.5,3.2,12.3,5.6,17.1c14.3,29.1,48.7,37.2,76.9,48.4c43.1,17.1,90.6,29.7,137,32.7c34.9,2.2,70.2,2.6,105.1,3.9
		c22.3,0.8,51.6-5.7,65.3-24.6c1.1-1.5,2.1-3.1,3-4.7V119.1z"/>
	<linearGradient id="SVGID_5_" gradientUnits="userSpaceOnUse" x1="262.4032" y1="390.5632" x2="371.7684" y2="390.5632">
		<stop  offset="0" style="stop-color:#219CD7"/>
		<stop  offset="1" style="stop-color:#44C8F5"/>
	</linearGradient>
	<path class="st5" d="M370.2,398c3.2-11.7,2.3-34.4-9.4-42.9c-8-5.8-27.4-0.4-25,10.8c-9.2-17.9-36-12.7-41.7,2
		c-11.8-6.7-28.3-1.4-31.1,12.1c-5.6,27.2,29.2,40.4,49.3,45.8C339.1,432.9,362.6,425.9,370.2,398z"/>
	<linearGradient id="SVGID_6_" gradientUnits="userSpaceOnUse" x1="635.7982" y1="406.618" x2="525.31" y2="222.4707">
		<stop  offset="0" style="stop-color:#44C8F5"/>
		<stop  offset="1" style="stop-color:#C7EAFB"/>
	</linearGradient>
	<path class="st6" d="M622.8,213.9c0.4,0,0.7,0,1.1-0.1c1.9-12.7,11.7-21.6,22.8-26.5c4.6-2,7.6-1.6,11.2-5.2
		c3.1-3.1,1.8-8.1,6.2-11.1c3.5-2.4,10.5-4,14-0.9c-1-5.3-1.1-12.3,1.5-17.2c3.3-6.3,9.8-6.4,16-6.7c-0.5-5.2-4.1-9-2.1-14.7
		c1.7-4.6,5.9-7.3,10.6-5.5c-0.9-1.1-2.7-3-2.1-4.7c0.7-1.8,3.1-2.3,4.5-1.2c-0.4-4.6,4.8-7.1,8.6-8.2c4.1-1.3,6.1,0.6,7.1,4.5
		c1.4-6,12.3,1.1,13.1,5.3c1.2,6-3.1,13.5-7.5,17.1c3.3-1.5,8.7,0,11,2.7c3.4,4.2,0,9.1-3,12.2c2.6-1.8,6.7,1.4,7.5,4
		c1,3.3-1.4,8.3-4.2,9.8c6.5,0.9,9.1,7.7,10.4,13.2c3.9,17,0,34.9-1.3,52c-1.7,21.3-5.6,42.6-12.4,62.9
		c-12.1,36.1-23,81.9-63.7,94.2c-67.7,20.4-136.7,29.9-208,30c-42.8,0-98.1-0.4-118.1-46.3c-3.1-7.1-4.2-15.4-1.8-22.8
		c1.2-3.7,6.9-10.4,7.8-11.6c-0.3-1.6-0.4-2.6-0.5-3.8c-0.1-2.5-0.4-6.1,1.8-9c4.4-5.7,8.6-6.1,13.3-7.6c-0.9-4,0.7-6.6,4.3-9.4
		c3.8-3,10.9-0.8,10.9,0.3c-0.5-12.4,12.3-20.2,23.2-9.2c5.3-8.3,16.5-3.7,23.9-2.9c-9.1-27.3,26.9-36.7,45.9-30.9
		c6.6-22.9,40.9-24.2,51.2-2.2c-1.8-10.3,4.9-16.3,13.2-20.6c9.9-5.2,25.7-1.9,31.7-7c3.2-2.6,4.3-8.6,8-11.8
		c4.3-3.6,11.4-7.3,16.8-9C604.5,213.3,613.8,214.3,622.8,213.9z"/>
	<linearGradient id="SVGID_7_" gradientUnits="userSpaceOnUse" x1="468.6395" y1="301.5705" x2="553.2412" y2="301.5705">
		<stop  offset="0" style="stop-color:#44C8F5"/>
		<stop  offset="1" style="stop-color:#C7EAFB"/>
	</linearGradient>
	<path class="st7" d="M489.9,325.3c20.3,9.8,61.3,9.3,63.2-20.7c0.8-12.8-10.8-21.8-21.3-27.7c-4-2.2-9.9-5.9-14.8-4.3
		c-1.9,0.6-9.4,8.8-7.3,9.3c-12-2.6-25.9-3.2-35.8,6.2C459.8,301.3,476.8,318.9,489.9,325.3z"/>
	<linearGradient id="SVGID_8_" gradientUnits="userSpaceOnUse" x1="506.8283" y1="296.9695" x2="633.8028" y2="296.9695">
		<stop  offset="0" style="stop-color:#44C8F5"/>
		<stop  offset="1" style="stop-color:#C7EAFB"/>
	</linearGradient>
	<path class="st8" d="M587,339c24.8-6,49-30.6,46.6-57.5c-2-22.9-40.6-29.7-59.6-29.6c-9.2,0-41.9,8.9-27.3,23.9
		c-9.2-1.6-22.2,9.5-18.1,19.2c-15.8-2.8-26.5,16.4-19.7,29.8C519.4,345.4,568.5,343.5,587,339z"/>
	<linearGradient id="SVGID_9_" gradientUnits="userSpaceOnUse" x1="368.7218" y1="444.5975" x2="228.7217" y2="372.5975">
		<stop  offset="0" style="stop-color:#219CD7"/>
		<stop  offset="1" style="stop-color:#44C8F5"/>
	</linearGradient>
	<path class="st9" d="M370.7,403c-2.3-10.2-3.4-25-15-28.9c-9.3-3.1-19.7,2.9-22.9,11.8c-8.1-14-34.6-20.5-48.7-10.8
		c-2.5,1.7-3.6,5.7-5.8,6.9c-1.8,1-4.5,0-6.2,0.9c-5.2,2.7-9.2,4.9-12.8,10c-6,8.6-5,16.9,0.7,25c-44.2,37.6,67,65.7,96.1,42.8
		C372.3,448,375,421.5,370.7,403z"/>
	<linearGradient id="SVGID_10_" gradientUnits="userSpaceOnUse" x1="734.8165" y1="215.0492" x2="659.7977" y2="156.136">
		<stop  offset="0" style="stop-color:#FFFFFF"/>
		<stop  offset="1" style="stop-color:#44C8F5"/>
	</linearGradient>
	<path class="st10" d="M662.2,214.9c-4.8-3.3-8.5-4.9-8.5-11.5c0-4.6,2.4-9.1,5.2-12.5c5.4-6.6,15.5-12.6,24-9
		c4.5,1.9,8.7,5.4,11.3,9.4c1.2,1.9,2.1,3.4,3.2,5c1.5,2.3,2.1,3.5,2.4,6.3c3.9-2.8,8.8-4.4,13.6-4.2c-2.5-5.1-7.1-8.2-8.5-13.9
		c-1.2-5,0.1-12.9,6.3-13.2c-1.2-3-5.6-4.4-6.3-8.5c-1-5.3,2.7-6.5,6-9.1c4.6-3.7,9.9-11.3,14.5-1.4c4.9,0.9,8.4,5.1,6.7,10.2
		c11.5,0.6,15.4,21.8,14.8,30.3c-1,14.1-12.2,20.8-25.1,24.4c-9.2,2.6-19.4,3.5-28.8,5.3c-7.4,1.4-15,3.5-21.8-0.5
		C667.9,219.8,665.4,217,662.2,214.9z"/>
	<linearGradient id="SVGID_11_" gradientUnits="userSpaceOnUse" x1="402.116" y1="497.7726" x2="269.117" y2="376.7736">
		<stop  offset="0" style="stop-color:#FFFFFF"/>
		<stop  offset="1" style="stop-color:#44C8F5"/>
	</linearGradient>
	<path class="st11" d="M368.8,481.8c18.8-15.3,22.2-55.8,18.4-77.6c-1.9-11.2-9-22.2-22.9-22.7c-10.8-0.4-24,11.9-19.4,23.4
		c-4.4-5.6-12.2-4.5-16.9,0.7c3.4-19.9-20.3-26-34.9-21.9c-16.2,4.5-35.8,22.9-15.1,36.1c-6.6,0.2-13.1,5.6-16.7,11.2
		c-8.4,13-1.8,23.9,7.6,34.3C289.8,488.6,341.5,504,368.8,481.8z"/>
	<path class="st12" d="M843,145c-5.4-0.2-10.8,0.9-12.2,4.3c-0.6-1.2-1.2-2.3-1.8-3.4c-3.9-7.2-8.4-13-17.2-14.7
		c-4.7-0.9-8.7-1.2-12.5,2.2c-1.2,1.1-7.3,9.6-5.1,11.1c-2.1-1.5-6.5-1.5-9.1-1.5c-4.4,0-4.3,2.7-7.3,4c-1.6,0.7-4.1-0.2-5.9,0.3
		c-2.2,0.7-4.1,2.7-5.2,4.5c-1.8,3-3.2,7.5-2.1,10.9c-3.4-3.4-9.1-5-13.9-4.8c-4.6,0.2-4.7,2.6-4.8,6.7c-3.6-0.6-8,0.1-7.7,4.9
		c-3.8-4.1-13.5-5.1-17.7-0.9c-1.6,1.6-2.8,4.2-2.7,6.4c0.1,2.6,2.4,4.1,2.7,6.4c-6.3,0.2-10.6,5.9-7.5,12c-2.4-1.3-7.4,1.8-8.1,4.5
		c0.6-5-9.3-13.2-13.8-8.9c-0.2-2.9-6.4-2.6-8.4-1.7c-3.2,1.5-3.1,4-2.4,6.9c-3.3-0.3-7.3,1.7-8.3,4.8c-5.6-3.7-16.4,0-22.2,1.6
		c-8.7,2.5-15.9,7.9-19.5,16.2c-3,7-3,14-3.6,21.4c-0.5,6-0.7,12.1-0.9,18.1c-0.2,5.8-0.7,15.5,3.8,20c3.9,3.9,10.1,2.3,14.9,1.5
		c10.3-1.8,20.3-3.6,30.7-4.5c12.8-1.1,25.4-0.2,38.3,0.2c12.3,0.4,25.3-0.1,37.4,1.9c17.2,2.8,33.5,1.5,50.9-0.4
		c11.5-1.3,20.2-3.1,22.7-16.1c1.2-6.5-1.1-15.4,3-20.2c3.2-3.8,7.8-6.9,11.2-10.7c1.6-1.7,3-3.4,4.5-5.2V145z"/>
	<linearGradient id="SVGID_12_" gradientUnits="userSpaceOnUse" x1="394.5606" y1="301.2762" x2="843" y2="301.2762">
		<stop  offset="0" style="stop-color:#FFFFFF"/>
		<stop  offset="1" style="stop-color:#C7EAFB"/>
	</linearGradient>
	<path class="st13" d="M843,149.5c-7.3,0.3-13.9,3.1-16.8,9.5c-2.7-7-11.8-10.8-19-11.2c-5.3-0.3-10.8,1.2-14.6,4.8
		c-3.3,3.1-1.2,2.7-6.3,1.8c-3.5-0.7-6.4-0.4-9.4,1.7c-5.3,4-3.3,8.1-3.5,13.5c-3.4-2.8-7.3-0.6-7.4,3.4c-2.7-5.3-9.3-6.4-14.9-5
		c-5.7,1.5-8.3,5.3-8.9,10.7c-2.6-4.3-13.7,0.1-9.3,6.1c-2-1.7-5.4-0.8-6.9,1.4c-2.4,3.2-0.5,6.1,1.2,8.8c-2.7-0.1-7.8,1.1-9,4
		c-1,2.7,2.1,4.8,2.2,7.3c-3.1-0.8-13.6-3.5-14.7,1.5c-4.2-2.2-7.5-5.6-12.9-6.1c-3.4-0.3-7.7,0-10,2.7c3.2-3.8-10.6-2-10.3-2
		c-2.3,0.2-2.7,4.4-5.1,4.6c-2,0.2-3.4-3.1-5.6-3.1c-4.2,0-9,0.4-12.6,2.1c-4,1.9-6.8,5.4-6.3,11.8c-14.4-1.6-23.5,12.2-20,25
		c-10.3-0.5-28.5,3.5-27,17c-11.5,0.6-27.9,16.8-16.2,27.2c-12.6,3.2-20.9,15.4-13.7,26.8c-9.4,0-42.5-24.1-49.1-6.9
		c-9.2-11.7-61.7-25.1-59.9,1c-8.3-4.3-18.5-1.4-18.8,8.8c-6.6-9.3-24.3-4.7-32.3,0.4c-14.1,8.9-9.8,17.8-8,31
		c0.8,6.1-0.8,7.7-2,13.7c-1.5,7.8,1.1,6.3,3,12.5c1.2,3.7,2.5,1.1,2.3,5.7c-0.1,1.4-4.6,5.9-5.3,8c-1.6,4.8-2.4,13.5,3.1,15.2
		c-3.2,9.4,7.5,18.7,15.1,23.9c11.8,8.1,28.2,10.8,42.1,13c31,4.9,62.7,8.5,93.9,12c98.3,11.1,215.6-7.7,270.9-98.3
		c7.6-12.4,15.9-25.6,22.2-38.7V149.5z"/>
	<linearGradient id="SVGID_13_" gradientUnits="userSpaceOnUse" x1="841.3124" y1="235.3958" x2="387.3142" y2="427.3953">
		<stop  offset="0" style="stop-color:#FFFFFF"/>
		<stop  offset="1" style="stop-color:#44C8F5"/>
	</linearGradient>
	<path class="st14" d="M606.4,254.7c6.5-6.4,12-11.6,24.5-11.8c-0.5-9.2,5.5-20.4,15.4-21.6c4.6-0.6,9.4,4.3,13,3.4
		c1.6-0.4,4.5-5.4,6.3-6.5c8.8-5.7,31.5-9.3,33.2,6c3.8-5.8,14.8-3.1,20.1-1.6c8.6,2.5,14.9,7.5,20.8,14.3
		c11.4,13.1,10.3,32.3,7,48.2c-3.5,16.9,1.8,35.9-5.5,51.9c-14,30.7-51.6,58.3-81,72c-52.3,24.3-112.1,33.6-169.2,29.1
		c-15.6-1.3-84.8,4.8-80.2-23.9c-10.1-0.6-11-11-9.6-19.1c0.4-2.2,3.4-4.5,3.6-6.2c0.2-1.8-1.8-3.5-1.6-4.8c0.8-4.5-0.7-7.2,2.9-11
		c-7.2-6.2,0.4-13.2-1-20.1c-1.5-7.2-7.8-8.1-5.1-18c2.5-9,7.8-14.4,16.8-15.9c12-2,20.6,5.3,31.1,5.8c2,0.1,9.9-9.7,16.2-9.7
		c2.9,0,8,3.3,10.3,2.8c4.3-0.9,2.9-4,6.4-5.9c11.8-6.3,25.9-4.5,36.2,5.1c11.9-8.6,33.7,2.1,33.2,16.6c5.1-8.1,18-20.3,28.7-18.9
		c-6.6-10.5,1.8-29.5,14.7-29.7c-3.8,0.1-3.9-11.2-3.5-13.2c1.4-7.9,5.5-7.2,10.1-11.3C602.5,258.5,604.5,256.5,606.4,254.7z"/>
	<linearGradient id="SVGID_14_" gradientUnits="userSpaceOnUse" x1="407.2808" y1="362.4886" x2="568.0511" y2="362.4886">
		<stop  offset="0" style="stop-color:#FFFFFF"/>
		<stop  offset="1" style="stop-color:#44C8F5"/>
	</linearGradient>
	<path class="st15" d="M476,407c26.9,10.4,62.2,2.7,81.8-18.5c18.7-20.2,11.4-65-17.3-74.3c-6.2-2-12.8-2-18.9,0.3
		c-1.9,0.7-17.2,12.5-15.5,13.4c-9.6-5-20.6-1.4-24.2,9c-10.6-7.6-23.9-8-33.6,0.8c-17.5-26.3-52.6,15.7-28.3,31.1
		c-8,2.3-10.7,12.1-5.3,18.1c-14.2,6.7-5.5,22.1,6.1,24.4c8.4,1.6,17.7,1.6,25.5-2.2C459.7,402.5,461.7,401.5,476,407z"/>
	<linearGradient id="SVGID_15_" gradientUnits="userSpaceOnUse" x1="269.0911" y1="441.8194" x2="442.29" y2="441.8194">
		<stop  offset="0" style="stop-color:#44C8F5"/>
		<stop  offset="1" style="stop-color:#C7EAFB"/>
	</linearGradient>
	<path class="st16" d="M434.8,473.1c22.2-36.8-7.7-104.6-54.8-79.1c-12,6.5-16.8,17.2-19.7,29c-6.3-17-27.9,0.3-32,9
		c-6.7-13.5-48.4,0.4-54.3,9.8c-13,20.8,2,40.3,23,45.3c24.7,5.8,50.4,9.2,75.8,8C393.9,494.1,422.7,493.1,434.8,473.1z"/>
	<path class="st12" d="M843,264.7c-4.1-0.1-8.4,0.7-12.9,2.1c-4.4,1.4-5.9,3-10.2,1.1c-3.6-1.7-4.8-2.6-8.9-2.5
		c-2.8,0.1-5.7,0.8-8.4,0.4c-0.3-5.4-9.4-9.8-11.6-3.4c-5.2-2.6-17.3-6-18.1,3.5c-0.9-4-6.8-5.5-10.9-5.6c0.1-2.1-0.3-4.8-2.6-5.1
		c2.7-2.5,3.8-10.3-1.1-11.8c0.3-6.2-3.5-12.2-10-14c-3.9-1.1-8.3-0.5-12.1,0.4c-1,0.3-3,1.1-3.9,1.2c-1.1,0.1-1.8-1.3-3-1.2
		c-19.4,0.9-18.5,33.2-18.2,46.7c0.2,7.5,3.3,15.4,8.2,21.1c5.2,6.1,8.5,10.9,12.2,18.3c9.3,19,33.6,26.8,52.5,31.8
		c19,5,40,13.1,59.2,8.3V264.7z"/>
	<linearGradient id="SVGID_16_" gradientUnits="userSpaceOnUse" x1="713.8093" y1="285.9176" x2="843" y2="285.9176">
		<stop  offset="0" style="stop-color:#FFFFFF"/>
		<stop  offset="1" style="stop-color:#44C8F5"/>
	</linearGradient>
	<path class="st17" d="M843,266.7c-1.3,0.5-2.4,1.1-3.4,1.7c-1.2,0.8-7.3,7.2-6.2,8.8c-3.5-5.4-14.8-6.5-19-1.3
		c-4.3-5.5-13.4-6.4-18.5-1.6c-0.6-4.7-5.5-8.7-9.8-9.8c-2.5-0.7-5-0.7-6.8,1.4c-1.7,1.9-0.3,4.6-2.9,5.5c-0.9-3.6-5.9-6.6-8.6-2.6
		c3.4-6.4-5.7-6.1-9.5-5c2.7-3.2,1.6-10.1-3.8-8.8c7-3,3.4-8.8-2.7-9c3.3-14.4-22.1-17-30.2-8.4c-4.2,4.4-4.5,10.7-2.9,16.1
		c0.8,2.6,3,5.4,2.6,8c-0.6,3.8-4.8,8-6.1,11.9c-5.3,16.4,5.1,28.3,19.2,35.6c17.7,9.1,36.1,16,55.1,22.1
		c15.8,5.1,37.5,12.8,53.5,4.5V266.7z"/>
	<linearGradient id="SVGID_17_" gradientUnits="userSpaceOnUse" x1="620.793" y1="289.1528" x2="752.9385" y2="289.1528">
		<stop  offset="0" style="stop-color:#FFFFFF"/>
		<stop  offset="1" style="stop-color:#44C8F5"/>
	</linearGradient>
	<path class="st18" d="M653.3,327.4c-12.2-2.7-28.1-9.9-31.8-23c-2-7,1-14.5,4-20.8c3.1-6.4,7.2-15.2,12-20.5
		c4.6-5.1,12.9-11.4,19.3-5.5c2.7-8.2,17.4-8.5,18.6,1c2.6-1.8,8.5-5.9,9.8,0c1.4-4.6,10.7-14.3,15.2-6.8c3-1.8,9.8-4.3,10.9,0.5
		c3.9-4,14-3.7,14.9,2.9c6.9-2.7,14.1,0,13.6,8.5c5.1-0.6,9,4.8,10.9,8.9c4,9,2.4,19.8-3.3,27.6c-9.6,13.1-25,19.8-40.3,23.6
		C689.7,328.1,671.1,331.4,653.3,327.4z"/>
	<linearGradient id="SVGID_18_" gradientUnits="userSpaceOnUse" x1="1" y1="424.4525" x2="843" y2="424.4525">
		<stop  offset="0" style="stop-color:#FFFFFF"/>
		<stop  offset="1" style="stop-color:#44C8F5"/>
	</linearGradient>
	<path class="st19" d="M819.6,305.5c-1.4-5.3,1.9-10.1,0.5-15.2c-1-3.7-4-6.9-8.2-6.8c-3.1,0.1-5.5,2.7-8.4,2.9
		c-1.3-3.1-4.2-5.9-6.7-1.7c-4.3-3.9-10.6-7.2-16.5-5.8c-3.7,0.8-6.9,4.6-10.6,4.5c-0.8-11.2-12.2-10.6-20.3-9.7
		c0.5-7.7-9,0.2-12.2-4.7c-1.6-2.5,0.4-5.8-0.9-8.4c-2.2-4.3-5.8-1.6-9.4-1.8c1.2-7.3-12-2.7-14.5-0.1c1.2-6.7-10.4-6.8-11.1-0.7
		c-1.6-2.6-5.9-2-7.6,0.5c-2.2,3.1,1.4,5.3,0.4,8.1c-0.6,1.8-4.6,2.2-4.9,5.5c-0.2,2.6,1.8,5.8,4.8,5.1c-0.8,5.3-4.7,7.5-10,7.7
		c-2.9,0.1-12.8-2.6-7.5-6.8c3.1-2.5,6,1.6,7.1-4.7c0.7-3.9-0.9-7.3-5.4-6.3c3.4-6.7-3.6-6.6-7.7-6c-0.5-7.1-7.8,0.9-9,3.3
		c-11.8-15.4-28.3,3.5-28.1,17.9c0,1.4,0.2,2.7,0.6,4c-23.4-6.9-64,16.6-43.2,42.2c-7.6-4.7-19.1-2.6-23.7,5.6
		c1.3-8.2-6.7-11.2-13-12.4c-12.3-2.3-15.1,2.9-22.8,9.8c-6.3,5.7-12.9,4.8-17.2,13.3c-3.1,6.1-4.7,16.1-1.1,22.3
		c-6.7-3.4-15.2-1.9-18.1,5.3c-0.2-10-11.2-16.6-20.8-11c-7.5-10.6-30.8-7.2-36.8,3.1c-1.7,2.9,0,6.1-1.2,9.1
		c-1.3,3.2-4.1,5-5.3,8.8c-1.6,5.1-2.2,13.4,3.2,16c-15.3,0.1-18.6,27-8.3,35.2c-8.1,2.6-15.6,8.4-15.6,18.1
		c-5.2-13.3-26-7.7-29.8-0.2c0-7.8-7.3-15.6-9.2-16.8c-9.3-6.3-23.4-5.8-33.2-1.5c-4.4,1.9-8.8,4.7-12.5,7.7
		c-6.2,5.1-9.3,13.2-7.8,20.9c-0.8-4.9-9.6-5.9-13.4-6.1c-6.2-0.3-11,1.4-15.1,6.2c0.3-13.2-22.5-20.3-32.7-18.6
		c-6.5,1.1-13,6.4-15.4,12.7c-1.7,4.5,0.3,9,1.1,13.1c-1.9-1-7.1,0.3-8.9,1.4c-3.5,1.9-3.3,5.3-4.6,8.3c-0.8-4.7-15.6-2.5-17.8,0.8
		c0.2-3.6-4.9-8.5-7.5-10.4c-4.8-3.6-11.4-4.3-17.3-4c-8.5,0.5-16.1,9.1-15.5,17.9c-3.4-4.6-12.7-6.5-18-7
		c-7.6-0.7-15.3,0.7-22.3,3.7c-13.4,5.5-21.7,26.2-11.6,38.8c-8.1,0.8-12.4,6.8-14.9,14.1c-29.8,0-35,22-34.7,37.7
		c-8.5-11.3-29.2-19.6-39.8-6.7c-2-11.1-19.7-8.7-28.2-6.3v38.3h842V309C836.2,302.4,827.2,297.5,819.6,305.5z"/>
	<linearGradient id="SVGID_19_" gradientUnits="userSpaceOnUse" x1="423.1297" y1="295.4481" x2="933.8445" y2="554.9163">
		<stop  offset="0" style="stop-color:#FFFFFF"/>
		<stop  offset="1" style="stop-color:#44C8F5"/>
	</linearGradient>
	<path class="st20" d="M843,354.5c-6-1.6-12.4-2-18.4-1.5c-6.6,0.6-12.4,2.3-18.6,4.9c-5.7,2.4-13.1,3.7-19.8,15.3
		c-3-0.9-6.5-0.1-9.2,1.3c-1.2,0.7-2.9,3-4,3.3c-1.4,0.5-2.8-0.6-4.3-1c-10.1-2.5-22.7,0.4-27.1,10.9c-1.1,2.8,0,4.7-0.1,7.5
		c-3.8-0.8-11.6,0.9-12.5,5.3c-3.6-4.9-7.5-8.2-13.6-9.5c-3.9-0.8-8-1.4-12.1-1.1c-3.5,0.2,1.2,0.5-2.6,1.5
		c-1.3-3.9-9.6-4.4-10.5-5.9c-1.2-1.9-2.7-3.5-4.3-5c-3-2.8-6.5-5-10.2-6.7c-12.5-5.7-24.4-7.2-37.8-5.4c-12.3,1.6-25,10.3-30.8,21
		c-3.4,6.5-4.5,16-1.7,22.2c0.1,0.1-10-2.9-14.7,6.1c-2.2,4.1-0.6,9.4,1.5,12.8c-3.3-1.5-8.8-0.2-12.2,0.3
		c-4.2,0.6-8.2,2.2-11.4,5.3c-3,2.9-5.3,7.8-6,11.8c-0.7,4.3,1.3,8,1.3,12.3c0-0.6-3.1,1.5-6.1,7.2c-1.9,3.6-3.7,1.7-7.1,3.8
		c-6,3.8-8.3,11.2-8.7,18c-0.7,12.4,9,27.9,21.3,31.2c11.2,3,22.5-3.3,33.8,0.7c5.5,1.9,12.3,6.1,17.5,9c11.7,6.5,20.2,8.1,34.1,7.6
		c13.3-0.5,18,3.2,30.4,7.3c12.7,4.2,24.7-1.2,36.8,4.1c16.6,7.3,23,9.7,42.1,6.7c14.5-2.3,24,3.4,38,4.9c13.4,1.5,31.9,0.6,47-4.9
		V354.5z"/>
	<linearGradient id="SVGID_20_" gradientUnits="userSpaceOnUse" x1="288.6782" y1="534.9683" x2="843" y2="534.9683">
		<stop  offset="0" style="stop-color:#FFFFFF"/>
		<stop  offset="1" style="stop-color:#44C8F5"/>
	</linearGradient>
	<path class="st21" d="M843,532c-5.5-3.2-11.7-2.1-18-5.5c-6.2-3.4-1.1-5.4-5.1-9.3c-4-3.9-14.2-5.1-19.8-5.1
		c-4.1-13-24.7-13.6-27.8,0.8c-3-11.4-17.2,0.1-22.3,4c-0.4-7.9-10.6-12.2-17.6-8.7c-11,5.4-0.2,5.9-0.6,14.1
		c-0.4,10.2-21.3,19.1-29.6,14.4c-6-3.3-2.4-9.6-9.2-13c-4.9-2.5-14.9-2.6-17.7,3.3c-1.1-6.5-10.9-8-15.9-6.5
		c1.5-8.2-0.7-17.3-8.8-22.6c-5.9-3.8-15.2-3-21.9-0.7c3.9-15-19.6-26.5-31.4-21.3c-13.2,5.8-17.5,15.9-14.8,26.6
		c-1.1-4.1-9-5.5-12.3-5.2c-3.1,0.3-4.7,2-7.3,3c-4.4,1.7-2,1.7-7.1,1.3c-14.5-1.1-23.2-3-33.2,7c-2.3,2.3-3.5,6.1-4.5,9.4
		c-6.8-2.3-14.9,0.6-17.4,2.8c-3.4,3.1-6.4,9.3-6.4,16.6c-5.5-3.6-14.4-3.6-19.3,3.5c-7.8-15.7-25.6-9-30.2-3.6
		c-9.3-8.2-34.9-8.8-39.7,5.7c-16-1.3-20.7,15.4-16.5,24.8c-16.8-10-28-3.7-33.8,2.1c-10.5-2.9-10.5-2.9-15-2.8
		c-3.5,0.1-7.7,2.8-11,2.1c-10.3-2.2-21.2-2.2-32.5,9.8c-3.9,4.1-6.8,10-7.8,16.2H843V532z"/>
</g>
<g id="Layer_3">
	<linearGradient id="SVGID_21_" gradientUnits="userSpaceOnUse" x1="332.9587" y1="268.9707" x2="363.9194" y2="268.9707">
		<stop  offset="0" style="stop-color:#0054A6"/>
		<stop  offset="1" style="stop-color:#44C8F5"/>
	</linearGradient>
	<path class="st22" d="M341.5,266.5c-1.7,1.1-3,2.6-4.1,4.2c-1.2,1.7-1.8,3.4-2.5,5.3c-0.4,1-0.7,2-1,3c-0.3,0.8-0.8,1.8-0.8,2.6
		c-0.4-2.9,0.2-5.8,1-8.6c0.7-2.5,1.1-5.2,2-7.5c1-2.6,3.7-3,4.4-2.7c0-0.3-0.1-0.5-0.2-0.7c-0.3-0.4-0.4-0.5-0.9-0.7
		c-0.1-0.1-0.4-0.2-0.6-0.2c0.2-0.1,0.6-0.2,0.7-0.3c0.3-0.2,0.4-0.3,0.7-0.4c0.3-0.1,0.7-0.1,1,0c0.3,0.1,0.6,0.2,0.8,0.4
		c0.2,0.2,0.4,0.5,0.7,0.6c0.7,0.1,0.6-0.7,0.7-1.2c0.1-0.6,0.4-1.2,0.9-1.5c1-0.8,2.3-1.2,3.5-1.5c3.7-1.2,7.8-0.9,11.6-0.7
		c0.9,0.1,1.9,0,2.8,0.2c0.4,0.1,1.7,0.2,1.9,0.6c-0.1,0-0.2,0.1-0.3,0.2c-0.2,0.1-0.4,0.1-0.6,0.1c-0.6,0-1.2-0.1-1.8-0.1
		c-1.7,0.1-3.4,0.4-5,0.8c-1.9,0.5-4,1.1-5.6,2.3c-1.2,0.8-2.3,1.6-3.4,2.5c-0.5,0.4-0.9,1.2-0.4,1.7c0.6,0.6,1.2,1.1,1.8,1.7
		c0.7,0.7,1.4,1.5,2.1,2.2c0.5,0.6,1.1,1.3,1.5,1.9c-0.3,0-0.6-0.1-0.9-0.2c0,0.3,0.1,0.6,0.2,0.8c-0.8-0.8-1.5-1.7-2.4-2.3
		c-0.6-0.4-1.2-0.8-1.8-1.1c-1-0.6-1.9-1.4-3-1.9C343.4,265.5,342.4,265.9,341.5,266.5z"/>
	<linearGradient id="SVGID_22_" gradientUnits="userSpaceOnUse" x1="422.5791" y1="248.7573" x2="448.623" y2="248.7573">
		<stop  offset="0" style="stop-color:#0054A6"/>
		<stop  offset="1" style="stop-color:#44C8F5"/>
	</linearGradient>
	<path class="st23" d="M427.2,249.2c-0.9,1.5-1.4,3-1.7,4.7c-0.3,1.7-0.2,3.3-0.1,5c0.1,0.9,0.2,1.8,0.3,2.7c0.1,0.7,0,1.7,0.3,2.3
		c-1.3-2.1-1.9-4.6-2.3-7.1c-0.4-2.1-1-4.4-1.1-6.6c-0.2-2.4,1.9-3.6,2.5-3.6c-0.1-0.2-0.3-0.4-0.4-0.5c-0.3-0.2-0.5-0.2-1-0.2
		c-0.1,0-0.4,0-0.5,0c0.1-0.1,0.4-0.3,0.4-0.4c0.2-0.2,0.2-0.4,0.4-0.6c0.2-0.2,0.5-0.3,0.7-0.4c0.2,0,0.5,0,0.8,0
		c0.2,0.1,0.5,0.3,0.8,0.2c0.4-0.1,0.3-0.6,0.2-0.9c-0.1-0.3-0.2-0.6-0.1-0.9c0.1-0.4,0.5-0.6,0.8-0.9c1.3-1.3,2.7-2.4,4.2-3.4
		c5.2-3.4,11.2-4.5,17.3-5.1c-3.4,0.3-6.7,2.4-9.7,4.2c-3,1.9-7.3,4.6-8.6,8.1c2.2,0.6,4.4,1.9,6.7,2.6c-0.2,0.3-0.4,0.6-0.5,0.9
		c-0.6-0.5-1.6-0.5-2.4-0.6c-1-0.2-2-0.4-3.1-0.6C429.1,247.7,428.3,247.4,427.2,249.2z"/>
	<linearGradient id="SVGID_23_" gradientUnits="userSpaceOnUse" x1="97.6506" y1="334.7651" x2="109.5063" y2="334.7651">
		<stop  offset="0" style="stop-color:#0054A6"/>
		<stop  offset="1" style="stop-color:#44C8F5"/>
	</linearGradient>
	<path class="st24" d="M101.8,340.6c0.4,1.2,1.1,2.1,1.9,3.1c0.8,1,1.8,1.6,2.8,2.3c0.5,0.4,1.1,0.7,1.7,1c0.4,0.3,0.9,0.7,1.4,0.8
		c-1.8-0.2-3.4-1-5-1.9c-1.4-0.8-2.9-1.4-4.2-2.3c-1.4-1-1.2-2.7-0.9-3c-0.2,0-0.3,0-0.5,0c-0.3,0.1-0.4,0.2-0.6,0.4
		c-0.1,0.1-0.2,0.2-0.2,0.3c0-0.1,0-0.4-0.1-0.4c-0.1-0.2-0.1-0.3-0.1-0.5c0-0.2,0-0.4,0.1-0.6c0.1-0.1,0.2-0.3,0.4-0.4
		c0.1-0.1,0.4-0.2,0.5-0.3c0.1-0.3-0.2-0.5-0.4-0.5c-0.2-0.1-0.4-0.2-0.5-0.3c-0.1-0.2-0.1-0.6-0.2-0.8c-0.2-1.3-0.1-2.6,0-3.9
		c0.4-4.5,2.5-8.3,4.8-12c-1.4,2.1-1.7,4.8-2,7.3c-0.3,2.5-0.7,6.2,0.7,8.5c1.3-1,3-1.7,4.4-2.6c0,0.2,0.2,0.5,0.3,0.7
		c-0.6,0.1-1,0.7-1.4,1.1c-0.6,0.5-1.1,0.9-1.7,1.5C101.8,338.9,101.2,339.2,101.8,340.6z"/>
	<linearGradient id="SVGID_24_" gradientUnits="userSpaceOnUse" x1="160.1635" y1="159.109" x2="184.5562" y2="159.109">
		<stop  offset="0" style="stop-color:#0054A6"/>
		<stop  offset="1" style="stop-color:#44C8F5"/>
	</linearGradient>
	<path class="st25" d="M166.2,157.3c-1.1,0.5-1.9,1.3-2.7,2.2c-0.8,0.9-1.3,1.9-1.9,2.9c-0.3,0.6-0.5,1.2-0.8,1.7
		c-0.2,0.4-0.6,1-0.6,1.5c0-1.7,0.6-3.4,1.2-5c0.6-1.4,1-3,1.7-4.3c0.8-1.5,2.4-1.5,2.8-1.2c0-0.2,0-0.3-0.1-0.4
		c-0.1-0.3-0.2-0.3-0.5-0.5c-0.1,0-0.2-0.1-0.3-0.2c0.1,0,0.3-0.1,0.4-0.1c0.2-0.1,0.3-0.2,0.5-0.2c0.2,0,0.4,0,0.6,0.1
		c0.1,0.1,0.3,0.2,0.4,0.3c0.1,0.1,0.2,0.4,0.4,0.4c0.3,0.1,0.4-0.3,0.5-0.5c0.1-0.2,0.1-0.4,0.3-0.5c0.2-0.2,0.5-0.2,0.8-0.2
		c1.2-0.3,2.5-0.4,3.7-0.5c4.3-0.1,8.3,1.5,12.1,3.3c-2.1-1.1-4.8-1.1-7.2-1.1c-2.5,0-6,0.1-8,1.6c1.1,1.2,1.9,2.7,3,3.9
		c-0.2,0.1-0.5,0.2-0.6,0.3c-0.2-0.5-0.8-0.9-1.2-1.2c-0.5-0.5-1-1-1.6-1.5C167.9,157.1,167.5,156.6,166.2,157.3z"/>
	<g>
		<linearGradient id="SVGID_25_" gradientUnits="userSpaceOnUse" x1="248.9075" y1="218.8168" x2="278.2275" y2="218.8168">
			<stop  offset="0" style="stop-color:#0054A6"/>
			<stop  offset="1" style="stop-color:#44C8F5"/>
		</linearGradient>
		<path class="st26" d="M256.6,215.4c-1.3,0.8-2.5,1.9-3.5,3.2c-1.1,1.4-1.7,2.9-2.4,4.6c-0.4,0.9-0.7,1.8-1,2.7
			c-0.2,0.7-0.7,1.6-0.7,2.4c-0.1-2.7,0.6-5.4,1.5-7.9c0.8-2.2,1.6-4.6,2.7-6.6c1.2-2.2,3.2-2.1,3.5-1.7c0-0.3,0-0.5,0-0.6
			c-0.1-0.4-0.2-0.5-0.5-0.8c-0.1-0.1-0.2-0.2-0.3-0.3c0.1-0.1,0.4-0.1,0.5-0.1c0.2-0.1,0.4-0.2,0.6-0.3c0.2,0,0.5,0,0.6,0.1
			c0.2,0.1,0.3,0.3,0.4,0.5c0.1,0.2,0.2,0.5,0.3,0.6c0.3,0.2,0.6-0.3,0.7-0.6c0.1-0.3,0.2-0.6,0.5-0.7c0.3-0.2,0.7-0.2,1-0.3
			c1.5-0.3,3-0.3,4.5-0.2c5.1,0.4,9.2,3.3,13.2,6c-2.3-1.6-5.4-2.1-8.2-2.4c-2.9-0.3-7-0.7-9.7,1.4c1.1,1.7,1.8,3.9,3,5.6
			c-0.3,0.1-0.6,0.3-0.8,0.5c-0.2-0.7-0.8-1.2-1.3-1.7c-0.6-0.7-1.1-1.4-1.7-2.1C258.5,215.2,258.2,214.5,256.6,215.4z"/>
	</g>
	<linearGradient id="SVGID_26_" gradientUnits="userSpaceOnUse" x1="321.642" y1="306.5508" x2="342.8818" y2="306.5508">
		<stop  offset="0" style="stop-color:#0054A6"/>
		<stop  offset="1" style="stop-color:#44C8F5"/>
	</linearGradient>
	<path class="st27" d="M325.6,306.3c-0.6,1.3-0.9,2.8-1.1,4.4c-0.1,1.6,0.1,3.1,0.4,4.7c0.1,0.9,0.4,1.7,0.5,2.6
		c0.1,0.7,0.2,1.6,0.5,2.2c-1.4-2.1-2.1-4.5-2.7-6.8c-0.5-2-1.3-4.3-1.6-6.3c-0.4-2.3,1.3-3.3,1.8-3.3c-0.1-0.2-0.3-0.4-0.4-0.5
		c-0.3-0.2-0.5-0.2-0.9-0.3c-0.1,0-0.3,0-0.5,0c0.1-0.1,0.3-0.3,0.3-0.4c0.1-0.2,0.1-0.4,0.3-0.5c0.2-0.1,0.4-0.3,0.6-0.3
		c0.2,0,0.5,0,0.7,0.1c0.2,0.1,0.5,0.3,0.7,0.2c0.4-0.1,0.2-0.6,0.1-0.9c-0.1-0.3-0.2-0.6-0.1-0.8c0.1-0.3,0.4-0.6,0.6-0.8
		c1-1.2,2.1-2.1,3.4-3c4.2-3,9.4-3.5,14.6-3.8c-3,0.1-5.7,1.8-8.1,3.4c-2.5,1.6-5.9,3.9-6.8,7.1c2,0.7,4.1,2,6.1,2.8
		c-0.2,0.2-0.3,0.6-0.4,0.8c-0.6-0.5-1.5-0.6-2.2-0.8c-0.9-0.3-1.8-0.5-2.7-0.8C327.2,305.1,326.4,304.7,325.6,306.3z"/>
	<linearGradient id="SVGID_27_" gradientUnits="userSpaceOnUse" x1="181.6309" y1="296.2415" x2="199.1255" y2="296.2415">
		<stop  offset="0" style="stop-color:#0054A6"/>
		<stop  offset="1" style="stop-color:#44C8F5"/>
	</linearGradient>
	<path class="st28" d="M183.3,294.3c0-0.4,0.4-0.9,0.3-1.2c-0.1-0.3-0.5-0.4-0.7-0.4c-0.4-0.1-0.8-0.3-1.2-0.3
		c0.4-0.3,0.6-1.1,1.1-1.3c0.8-0.2,1.1,1,1.6-0.2c0.2-0.6,0-1.4,0.1-2c0.2-1.3,1.1-2.2,2-3.1c1.6-1.5,3.1-2.2,5.1-3.2
		c2-1,4.8-2.3,7.5-2.3c0,0,0,0-0.1,0c0,0,0-0.1,0.1,0c-1.8,0.5-3.2,1.2-4.8,2.2c-1.7,1.1-3.3,2.3-4.8,3.5c-1.8,1.5-3.9,5.5-1.6,7.5
		c1,0.8,2,1,3.1,1.6c0.3,0.2,1.1,0.4,1.4,0.5c-0.2,0.1-0.4,0.2-0.6,0.3c0.1,0.2,0.4,0.6,0.6,0.7c-1.7-0.8-3.2-1.3-3.9-1.5
		c-0.5-0.2-1.1-0.4-1.6,0.2c-0.4,0.6-0.3,1.6-0.3,2.3c0,1,0.1,2,0.2,3c0.2,1.9,0.7,3.7,1.2,5.5c0.6,2.1,1.5,4.1,2,6.2
		C187.1,307.8,182.7,301.1,183.3,294.3z"/>
	<linearGradient id="SVGID_28_" gradientUnits="userSpaceOnUse" x1="264.9785" y1="316.0815" x2="282.3506" y2="316.0815">
		<stop  offset="0" style="stop-color:#0054A6"/>
		<stop  offset="1" style="stop-color:#44C8F5"/>
	</linearGradient>
	<path class="st29" d="M267,313.6c0-0.3,0.4-0.8,0.3-1.1c-0.1-0.3-0.6-0.3-0.9-0.4c-0.5-0.1-1-0.3-1.5-0.2c0.5-0.2,0.7-1,1.3-1.1
		c0.5-0.1,1.1,0.6,1.6,0.3c0.1-0.4,0-0.7,0-1c0-0.5,0.2-1,0.5-1.4c0.3-0.5,0.8-0.9,1.2-1.4c0.7-0.8,1.3-1.3,2.2-1.8
		c1.1-0.6,2.2-1.1,3.4-1.5c2.3-0.8,4.8-1.2,7.3-1.2c0,0.1-0.1,0.4-0.1,0.5c-0.7,0.3-1.4,0.5-2.1,0.8c-1.9,0.7-3.9,1.4-5.6,2.7
		c-1.4,1-2.8,2.6-2.6,4.4c0.1,0.9,0.7,1.3,1.3,1.8c1.2,0.8,2.7,0.8,3.9,1.4c0.4,0.2,0.7,0.4,1.1,0.5c-0.2,0.1-0.5,0.2-0.7,0.2
		c0.1,0.2,0.5,0.5,0.7,0.6c-0.8,0-1.7-0.2-2.5-0.5c-0.8-0.2-1.6-0.3-2.4-0.5c-0.6-0.2-1.3-0.7-1.8-0.2c-0.5,0.5-0.4,1.4-0.3,2.1
		c0,0.9,0.1,1.8,0.3,2.6c0.3,1.7,0.9,3.3,1.6,4.9c0.8,1.9,1.9,3.7,2.6,5.5C271.9,325.6,266.4,319.7,267,313.6z"/>
	<linearGradient id="SVGID_29_" gradientUnits="userSpaceOnUse" x1="363.8569" y1="303.4057" x2="386.4902" y2="303.4057">
		<stop  offset="0" style="stop-color:#0054A6"/>
		<stop  offset="1" style="stop-color:#44C8F5"/>
	</linearGradient>
	<path class="st30" d="M366.4,296.1c0.2-0.3,0.8-0.5,0.9-0.8c0.1-0.3-0.4-0.6-0.6-0.8c-0.4-0.4-0.7-0.8-1.2-1.1
		c0.6,0.1,1.2-0.5,1.9-0.3c0.5,0.2,0.7,1.1,1.3,1.1c0.2-0.3,0.4-0.6,0.6-1c0.3-0.4,0.7-0.8,1.2-1c0.6-0.3,1.2-0.4,1.8-0.6
		c1.1-0.4,1.9-0.5,3-0.4c1.3,0.1,2.6,0.3,3.9,0.6c2.6,0.6,5.1,1.6,7.2,3.1c-0.1,0.1-0.3,0.3-0.4,0.4c-0.8-0.1-1.5-0.3-2.3-0.5
		c-2.1-0.5-4.4-0.9-6.6-0.8c-1.8,0.1-4,0.7-4.9,2.5c-0.4,0.8-0.1,1.6,0.2,2.4c0.6,1.5,1.9,2.2,2.8,3.5c0.2,0.3,0.5,0.8,0.7,1
		c-0.2,0-0.5-0.1-0.7-0.2c0,0.2,0.2,0.7,0.3,1c-0.7-0.5-1.4-1.1-2-1.8c-0.6-0.7-1.3-1.2-1.9-1.8c-0.4-0.5-0.8-1.4-1.6-1.2
		c-0.7,0.2-1.1,1.1-1.5,1.7c-0.5,0.8-0.9,1.7-1.2,2.5c-0.7,1.7-1,3.5-1.3,5.3c-0.3,2.1-0.4,4.4-0.8,6.4
		C364,309.7,362.4,301.3,366.4,296.1z"/>
	<linearGradient id="SVGID_30_" gradientUnits="userSpaceOnUse" x1="180.013" y1="402.9111" x2="202.3228" y2="402.9111">
		<stop  offset="0" style="stop-color:#0054A6"/>
		<stop  offset="1" style="stop-color:#44C8F5"/>
	</linearGradient>
	<path class="st31" d="M194.3,405.4c-0.4,0.2-0.8,0.4-1,0.3c-0.5-0.2-0.7-2-0.8-2.5c-0.1-0.4-0.6-0.9-0.7-1.3
		c-0.1-0.5,0.2-0.7,0.5-1.2c0.8-1.2,1.7-2.2,2.6-3.3c0.5-0.6,0.9-1.2,1.3-1.9c0.1-0.2,0.6-0.6,0.7-0.9c0,0,0-0.6-0.1-0.6
		c-1.4,0.9-2.4,2.5-3.7,3.5c-0.8,0.6-1.5,1.3-2.2,2.1c-0.7,0.8-0.7,0.9-1.7,0.8c-1.9-0.2-3.3,0.9-5,1.6c1.6-3.9,5.4-8.3,6.4-9.8
		c-1.1,0.6-2.6,1.8-3.6,2.9c-1.2,1.2-2.2,2.1-3.2,3.5c-1,1.4-2.1,2.8-2.9,4.4c-0.4,0.8-1.3,2.4-0.6,3.3c0.6,0.7,1.9,0.2,2.6,0.3
		c1.8,0.3,0.5,1.7,0.1,2.6c-0.6,1.5,0.1,2.5,0,3.9c0.7-1.2,2-1.4,2.6-2.7c0.2-0.4,0.2-1.8,0.6-1.9c1.3-0.4,1,0.5,1.3,0.9
		c0.7,1.1,1.6,1,2.7,0.5c3.4-1.5,6.6-3.7,9-6.6c1.1-1.3,2-2.7,3-4c0,0-1,0.6-1.2,0.6C200.7,400.4,196.2,404.5,194.3,405.4z"/>
</g>
</svg>
